<?xml version="1.0" encoding="UTF-8" standalone="no"?>
<!-- Created with Inkscape (http://www.inkscape.org/) -->

<svg
   xmlns:dc="http://purl.org/dc/elements/1.1/"
   xmlns:cc="http://creativecommons.org/ns#"
   xmlns:rdf="http://www.w3.org/1999/02/22-rdf-syntax-ns#"
   xmlns:svg="http://www.w3.org/2000/svg"
   xmlns="http://www.w3.org/2000/svg"
   version="1.2"
   width="53.532574"
   height="58.111126"
   id="svg3223">
  <defs
     id="defs3225" />
  <metadata
     id="metadata3228">
    <rdf:RDF>
      <cc:Work
         rdf:about="">
        <dc:format>image/svg+xml</dc:format>
        <dc:type
           rdf:resource="http://purl.org/dc/dcmitype/StillImage" />
        <dc:title></dc:title>
      </cc:Work>
    </rdf:RDF>
  </metadata>
  <g
     transform="translate(-400.42529,-306.97572)"
     id="layer1">
    <rect
       width="42.944054"
       height="49.870514"
       x="408.4845"
       y="309.50504"
       id="rect3231"
       style="color:#000000;fill:none;stroke:#545454;stroke-width:5.05862427;stroke-miterlimit:4;stroke-opacity:1;stroke-dasharray:none;marker:none;visibility:visible;display:inline;overflow:visible;enable-background:accumulate" />
    <rect
       width="28.167603"
       height="1.3852918"
       x="415.87274"
       y="321.04913"
       id="rect4001"
       style="color:#000000;fill:none;stroke:#545454;stroke-width:5.05862427;stroke-miterlimit:4;stroke-opacity:1;stroke-dasharray:none;stroke-dashoffset:0;marker:none;visibility:visible;display:inline;overflow:visible;enable-background:accumulate" />
    <rect
       width="14.858214"
       height="1.0052946"
       x="414.67746"
       y="331.85971"
       id="rect4001-6"
       style="color:#000000;fill:none;stroke:#545454;stroke-width:3.12980151;stroke-miterlimit:4;stroke-opacity:1;stroke-dasharray:none;stroke-dashoffset:0;marker:none;visibility:visible;display:inline;overflow:visible;enable-background:accumulate" />
    <rect
       width="14.858214"
       height="1.0052946"
       x="414.67746"
       y="337.5163"
       id="rect4001-6-7"
       style="color:#000000;fill:none;stroke:#545454;stroke-width:3.12980151;stroke-miterlimit:4;stroke-opacity:1;stroke-dasharray:none;stroke-dashoffset:0;marker:none;visibility:visible;display:inline;overflow:visible;enable-background:accumulate" />
    <rect
       width="14.858214"
       height="1.0052946"
       x="414.67746"
       y="343.17288"
       id="rect4001-6-5"
       style="color:#000000;fill:none;stroke:#545454;stroke-width:3.12980151;stroke-miterlimit:4;stroke-opacity:1;stroke-dasharray:none;stroke-dashoffset:0;marker:none;visibility:visible;display:inline;overflow:visible;enable-background:accumulate" />
    <flowRoot
       id="flowRoot4565"
       xml:space="preserve"
       style="font-size:12px;font-style:normal;font-weight:normal;line-height:125%;letter-spacing:0px;word-spacing:0px;fill:#000000;fill-opacity:1;stroke:none;font-family:Sans;-inkscape-font-specification:Sans"><flowRegion
         id="flowRegion4567"><rect
           width="157.14285"
           height="180"
           x="114.28571"
           y="758.07648"
           id="rect4569"
           style="font-size:12px" /></flowRegion><flowPara
         id="flowPara4571"></flowPara></flowRoot>    <flowRoot
       id="flowRoot4573"
       xml:space="preserve"
       style="font-size:16px;font-style:normal;font-weight:normal;line-height:125%;letter-spacing:0px;word-spacing:0px;fill:#000000;fill-opacity:1;stroke:none;font-family:Sans;-inkscape-font-specification:Sans"><flowRegion
         id="flowRegion4575"><rect
           width="180"
           height="194.28572"
           x="174.28572"
           y="769.50507"
           id="rect4577" /></flowRegion><flowPara
         id="flowPara4579"></flowPara></flowRoot>    <g
       transform="matrix(0.31751038,0,0,0.31751038,381.44127,88.814217)"
       id="flowRoot4581"
       style="font-size:64px;font-style:normal;font-weight:normal;line-height:125%;letter-spacing:0px;word-spacing:0px;fill:#4e4e4e;fill-opacity:1;stroke:#545454;stroke-opacity:1;font-family:Sans;-inkscape-font-specification:Sans">
      <path
         d="m 203.09375,805.0107 c -1.9792,1.14583 -4.05212,2.01041 -6.21875,2.59375 -2.14587,0.58333 -4.38545,0.875 -6.71875,0.875 -5.45836,0 -10.06252,-1.35417 -13.8125,-4.0625 -3.72918,-2.72916 -6.37501,-6.64583 -7.9375,-11.75 l -6.78125,0 2.75,-6.09375 3.0625,0 c -0.0208,-0.29165 -0.0417,-0.59373 -0.0625,-0.90625 0,-0.33331 0,-0.79165 0,-1.375 0,-0.60415 0,-1.0729 0,-1.40625 0.0208,-0.33331 0.0417,-0.65623 0.0625,-0.96875 l -5.8125,0 2.75,-6.09375 4.03125,0 c 1.60416,-5.12497 4.26041,-9.03121 7.96875,-11.71875 3.72915,-2.68746 8.32289,-4.03121 13.78125,-4.03125 2.3333,4e-5 4.57288,0.29171 6.71875,0.875 2.16663,0.58338 4.23955,1.44796 6.21875,2.59375 l 0,9.65625 c -1.68754,-1.62497 -3.48962,-2.84372 -5.40625,-3.65625 -1.9167,-0.8333 -3.90628,-1.24996 -5.96875,-1.25 -2.64586,4e-5 -4.90627,0.64587 -6.78125,1.9375 -1.85419,1.27087 -3.25002,3.13545 -4.1875,5.59375 l 16.84375,0 -2.6875,6.09375 -15.40625,0 c -0.0417,0.33335 -0.0729,0.68752 -0.0937,1.0625 -2e-5,0.37502 -2e-5,0.93752 0,1.6875 -2e-5,0.27085 -2e-5,0.57294 0,0.90625 0.0208,0.31252 0.0417,0.64585 0.0625,1 l 13.40625,0 -2.78125,6.09375 -9.34375,0 c 1.04165,2.54168 2.46873,4.44792 4.28125,5.71875 1.83331,1.27084 4.06247,1.90625 6.6875,1.90625 2.06247,0 4.03122,-0.40625 5.90625,-1.21875 1.8958,-0.83333 3.71871,-2.07291 5.46875,-3.71875 l 0,9.65625"
         id="path4590"
         style="font-weight:bold;fill:#4e4e4e;fill-opacity:1;stroke:#545454;stroke-opacity:1;-inkscape-font-specification:Sans Bold" />
    </g>
    <path
       d="m 412.22524,330.78037 0,11.81415 -11.79995,0 0,10.67818 11.79995,0 0,11.81415 10.69238,0 0,-11.81415 11.79995,0 0,-10.67818 -11.79995,0 0,-11.81415 -10.69238,0 z"
       id="rect3198"
       style="color:#000000;fill:#000080;fill-opacity:1;fill-rule:nonzero;stroke:#ffffff;stroke-width:2;stroke-miterlimit:4;stroke-opacity:1;stroke-dasharray:none;marker:none;visibility:visible;display:inline;overflow:visible;enable-background:accumulate" />
  </g>
</svg>
