<?xml version="1.0" encoding="UTF-8" standalone="no"?>
<!-- Created with Inkscape (http://www.inkscape.org/) -->

<svg
   xmlns:dc="http://purl.org/dc/elements/1.1/"
   xmlns:cc="http://creativecommons.org/ns#"
   xmlns:rdf="http://www.w3.org/1999/02/22-rdf-syntax-ns#"
   xmlns:svg="http://www.w3.org/2000/svg"
   xmlns="http://www.w3.org/2000/svg"
   version="1.1"
   width="100%"
   height="100%"
   viewBox="0 0 57.641069 51.866212"
   id="Capa_1"
   xml:space="preserve"><metadata
     id="metadata3196"><rdf:RDF><cc:Work
         rdf:about=""><dc:format>image/svg+xml</dc:format><dc:type
           rdf:resource="http://purl.org/dc/dcmitype/StillImage" /><dc:title></dc:title></cc:Work></rdf:RDF></metadata><defs
     id="defs3194" /><g
     transform="matrix(0.96269008,0,0,0.96269008,0.90252195,-1.9855483)"
     id="XMLID_21_"
     style="fill:none;stroke:#575757;stroke-width:1.89999998;stroke-miterlimit:4;stroke-opacity:1;stroke-dasharray:none"><path
       d="M 29,48 C 14.641,48 3,45.038 3,42 v 6.996 C 3.008,52.032 14.645,55 29,55 43.355,55 54.992,52.032 55,48.996 V 42 c 0,3.038 -11.641,6 -26,6"
       id="XMLID_148_"
       style="fill:none;stroke:#575757;stroke-width:1.89999998;stroke-miterlimit:4;stroke-opacity:1;stroke-dasharray:none" /><path
       d="M 26,37 C 11.641,37 0,34.038 0,31 v 6.996 C 0.008,41.032 11.645,44 26,44 40.355,44 51.992,41.032 52,37.996 V 31 c 0,3.038 -11.641,6 -26,6"
       id="XMLID_147_"
       style="fill:none;stroke:#575757;stroke-width:1.89999998;stroke-miterlimit:4;stroke-opacity:1;stroke-dasharray:none" /><path
       d="M 32,26 C 17.641,26 6,23.038 6,20 v 6.996 C 6.008,30.032 17.645,33 32,33 46.355,33 57.992,30.032 58,26.996 V 20 c 0,3.038 -11.641,6 -26,6"
       id="XMLID_146_"
       style="fill:none;stroke:#575757;stroke-width:1.89999998;stroke-miterlimit:4;stroke-opacity:1;stroke-dasharray:none" /><path
       d="M 52,8.13 C 52,11.167 40.359,14 26,14 11.641,14 0,11.167 0,8.13 0,5.092 11.641,3 26,3 40.359,3 52,5.092 52,8.13"
       id="XMLID_145_"
       style="fill:none;stroke:#575757;stroke-width:1.89999998;stroke-miterlimit:4;stroke-opacity:1;stroke-dasharray:none" /><path
       d="M 26,14 C 11.641,14 0,11.038 0,8 v 6.996 C 0.008,18.032 11.645,21 26,21 40.355,21 51.992,18.032 52,14.996 V 8 c 0,3.038 -11.641,6 -26,6"
       id="XMLID_144_"
       style="fill:none;stroke:#575757;stroke-width:1.89999998;stroke-miterlimit:4;stroke-opacity:1;stroke-dasharray:none" /><path
       d="m 4,11.074 v 6.995 c 0.608,0.224 1.274,0.44 2,0.646 V 11.719 C 5.274,11.513 4.608,11.297 4,11.074"
       id="XMLID_143_"
       style="fill:none;stroke:#575757;stroke-width:1.89999998;stroke-miterlimit:4;stroke-opacity:1;stroke-dasharray:none" /><path
       d="m 46,11.719 v 6.996 c 0.726,-0.206 1.392,-0.422 2,-0.646 v -6.995 c -0.608,0.224 -1.274,0.439 -2,0.645"
       id="XMLID_142_"
       style="fill:none;stroke:#575757;stroke-width:1.89999998;stroke-miterlimit:4;stroke-opacity:1;stroke-dasharray:none" /><path
       d="m 9,12.445 v 6.997 c 0.64,0.133 1.307,0.259 2,0.378 V 12.823 C 10.307,12.704 9.64,12.578 9,12.445"
       id="XMLID_141_"
       style="fill:none;stroke:#575757;stroke-width:1.89999998;stroke-miterlimit:4;stroke-opacity:1;stroke-dasharray:none" /><path
       d="m 41,12.823 v 6.998 c 0.693,-0.12 1.36,-0.246 2,-0.379 v -6.997 c -0.64,0.133 -1.307,0.259 -2,0.378"
       id="XMLID_140_"
       style="fill:none;stroke:#575757;stroke-width:1.89999998;stroke-miterlimit:4;stroke-opacity:1;stroke-dasharray:none" /><path
       d="m 14,13.269 v 6.998 c 0.652,0.084 1.317,0.162 2,0.232 v -6.998 c -0.683,-0.07 -1.348,-0.149 -2,-0.232"
       id="XMLID_139_"
       style="fill:none;stroke:#575757;stroke-width:1.89999998;stroke-miterlimit:4;stroke-opacity:1;stroke-dasharray:none" /><path
       d="M 36,13.502 V 20.5 c 0.683,-0.071 1.348,-0.149 2,-0.232 v -6.999 c -0.652,0.085 -1.317,0.163 -2,0.233"
       id="XMLID_138_"
       style="fill:none;stroke:#575757;stroke-width:1.89999998;stroke-miterlimit:4;stroke-opacity:1;stroke-dasharray:none" /><path
       d="m 19,13.759 v 6.999 c 0.657,0.046 1.323,0.087 2,0.12 v -7 c -0.677,-0.033 -1.343,-0.073 -2,-0.119"
       id="XMLID_137_"
       style="fill:none;stroke:#575757;stroke-width:1.89999998;stroke-miterlimit:4;stroke-opacity:1;stroke-dasharray:none" /><path
       d="m 31,13.878 v 7 c 0.677,-0.033 1.343,-0.074 2,-0.12 v -6.999 c -0.657,0.046 -1.323,0.086 -2,0.119"
       id="XMLID_136_"
       style="fill:none;stroke:#575757;stroke-width:1.89999998;stroke-miterlimit:4;stroke-opacity:1;stroke-dasharray:none" /><path
       d="m 26,14 c -0.335,0 -0.668,-0.003 -1,-0.006 v 7 c 0.332,0.003 0.665,0.006 1,0.006 0.335,0 0.668,-0.003 1,-0.006 v -7 C 26.668,13.997 26.335,14 26,14"
       id="XMLID_135_"
       style="fill:none;stroke:#575757;stroke-width:1.89999998;stroke-miterlimit:4;stroke-opacity:1;stroke-dasharray:none" /><path
       d="m 10,23.074 v 6.995 c 0.608,0.224 1.274,0.44 2,0.646 v -6.996 c -0.726,-0.206 -1.392,-0.422 -2,-0.645"
       id="XMLID_134_"
       style="fill:none;stroke:#575757;stroke-width:1.89999998;stroke-miterlimit:4;stroke-opacity:1;stroke-dasharray:none" /><path
       d="m 52,23.719 v 6.996 c 0.726,-0.206 1.392,-0.422 2,-0.646 v -6.995 c -0.608,0.224 -1.274,0.439 -2,0.645"
       id="XMLID_133_"
       style="fill:none;stroke:#575757;stroke-width:1.89999998;stroke-miterlimit:4;stroke-opacity:1;stroke-dasharray:none" /><path
       d="m 15,24.445 v 6.997 c 0.64,0.133 1.307,0.259 2,0.378 v -6.997 c -0.693,-0.119 -1.36,-0.245 -2,-0.378"
       id="XMLID_132_"
       style="fill:none;stroke:#575757;stroke-width:1.89999998;stroke-miterlimit:4;stroke-opacity:1;stroke-dasharray:none" /><path
       d="m 47,24.823 v 6.998 c 0.693,-0.12 1.36,-0.246 2,-0.379 v -6.997 c -0.64,0.133 -1.307,0.259 -2,0.378"
       id="XMLID_131_"
       style="fill:none;stroke:#575757;stroke-width:1.89999998;stroke-miterlimit:4;stroke-opacity:1;stroke-dasharray:none" /><path
       d="m 20,25.27 v 6.998 c 0.652,0.084 1.317,0.162 2,0.232 V 25.502 C 21.317,25.431 20.652,25.353 20,25.27"
       id="XMLID_130_"
       style="fill:none;stroke:#575757;stroke-width:1.89999998;stroke-miterlimit:4;stroke-opacity:1;stroke-dasharray:none" /><path
       d="M 42,25.501 V 32.5 c 0.683,-0.071 1.348,-0.149 2,-0.232 V 25.27 c -0.652,0.084 -1.317,0.162 -2,0.231"
       id="XMLID_129_"
       style="fill:none;stroke:#575757;stroke-width:1.89999998;stroke-miterlimit:4;stroke-opacity:1;stroke-dasharray:none" /><path
       d="m 25,25.759 v 6.999 c 0.657,0.046 1.323,0.087 2,0.12 v -7 c -0.677,-0.033 -1.343,-0.073 -2,-0.119"
       id="XMLID_128_"
       style="fill:none;stroke:#575757;stroke-width:1.89999998;stroke-miterlimit:4;stroke-opacity:1;stroke-dasharray:none" /><path
       d="m 37,25.878 v 7 c 0.677,-0.033 1.343,-0.074 2,-0.12 v -6.999 c -0.657,0.046 -1.323,0.086 -2,0.119"
       id="XMLID_127_"
       style="fill:none;stroke:#575757;stroke-width:1.89999998;stroke-miterlimit:4;stroke-opacity:1;stroke-dasharray:none" /><path
       d="m 32,26 c -0.335,0 -0.668,-0.003 -1,-0.006 v 7 c 0.332,0.003 0.665,0.006 1,0.006 0.335,0 0.668,-0.003 1,-0.006 v -7 C 32.668,25.997 32.335,26 32,26"
       id="XMLID_126_"
       style="fill:none;stroke:#575757;stroke-width:1.89999998;stroke-miterlimit:4;stroke-opacity:1;stroke-dasharray:none" /><path
       d="m 4,34.074 v 6.995 c 0.608,0.224 1.274,0.439 2,0.646 V 34.719 C 5.274,34.513 4.608,34.297 4,34.074"
       id="XMLID_125_"
       style="fill:none;stroke:#575757;stroke-width:1.89999998;stroke-miterlimit:4;stroke-opacity:1;stroke-dasharray:none" /><path
       d="m 46,34.719 v 6.996 c 0.726,-0.206 1.392,-0.422 2,-0.646 v -6.995 c -0.608,0.224 -1.274,0.439 -2,0.645"
       id="XMLID_124_"
       style="fill:none;stroke:#575757;stroke-width:1.89999998;stroke-miterlimit:4;stroke-opacity:1;stroke-dasharray:none" /><path
       d="m 9,35.445 v 6.997 c 0.64,0.133 1.307,0.259 2,0.378 V 35.823 C 10.307,35.704 9.64,35.578 9,35.445"
       id="XMLID_123_"
       style="fill:none;stroke:#575757;stroke-width:1.89999998;stroke-miterlimit:4;stroke-opacity:1;stroke-dasharray:none" /><path
       d="m 41,35.823 v 6.998 c 0.693,-0.12 1.36,-0.246 2,-0.379 v -6.997 c -0.64,0.133 -1.307,0.259 -2,0.378"
       id="XMLID_122_"
       style="fill:none;stroke:#575757;stroke-width:1.89999998;stroke-miterlimit:4;stroke-opacity:1;stroke-dasharray:none" /><path
       d="m 14,36.27 v 6.998 c 0.652,0.084 1.317,0.162 2,0.232 V 36.502 C 15.317,36.431 14.652,36.353 14,36.27"
       id="XMLID_121_"
       style="fill:none;stroke:#575757;stroke-width:1.89999998;stroke-miterlimit:4;stroke-opacity:1;stroke-dasharray:none" /><path
       d="M 36,36.501 V 43.5 c 0.683,-0.071 1.348,-0.149 2,-0.232 V 36.27 c -0.652,0.084 -1.317,0.162 -2,0.231"
       id="XMLID_120_"
       style="fill:none;stroke:#575757;stroke-width:1.89999998;stroke-miterlimit:4;stroke-opacity:1;stroke-dasharray:none" /><path
       d="m 19,36.759 v 6.999 c 0.657,0.046 1.323,0.087 2,0.12 v -7 c -0.677,-0.033 -1.343,-0.073 -2,-0.119"
       id="XMLID_119_"
       style="fill:none;stroke:#575757;stroke-width:1.89999998;stroke-miterlimit:4;stroke-opacity:1;stroke-dasharray:none" /><path
       d="m 31,36.878 v 7 c 0.677,-0.033 1.343,-0.074 2,-0.12 v -6.999 c -0.657,0.046 -1.323,0.086 -2,0.119"
       id="XMLID_118_"
       style="fill:none;stroke:#575757;stroke-width:1.89999998;stroke-miterlimit:4;stroke-opacity:1;stroke-dasharray:none" /><path
       d="m 26,37 c -0.335,0 -0.668,-0.003 -1,-0.006 v 7 c 0.332,0.003 0.665,0.006 1,0.006 0.335,0 0.668,-0.003 1,-0.006 v -7 C 26.668,36.997 26.335,37 26,37"
       id="XMLID_117_"
       style="fill:none;stroke:#575757;stroke-width:1.89999998;stroke-miterlimit:4;stroke-opacity:1;stroke-dasharray:none" /><path
       d="m 7,45.074 v 6.995 c 0.608,0.224 1.274,0.439 2,0.646 V 45.719 C 8.274,45.513 7.608,45.297 7,45.074"
       id="XMLID_116_"
       style="fill:none;stroke:#575757;stroke-width:1.89999998;stroke-miterlimit:4;stroke-opacity:1;stroke-dasharray:none" /><path
       d="m 49,45.719 v 6.996 c 0.726,-0.206 1.392,-0.422 2,-0.646 v -6.995 c -0.608,0.224 -1.274,0.439 -2,0.645"
       id="XMLID_115_"
       style="fill:none;stroke:#575757;stroke-width:1.89999998;stroke-miterlimit:4;stroke-opacity:1;stroke-dasharray:none" /><path
       d="m 12,46.445 v 6.997 c 0.64,0.133 1.307,0.259 2,0.378 v -6.997 c -0.693,-0.119 -1.36,-0.245 -2,-0.378"
       id="XMLID_114_"
       style="fill:none;stroke:#575757;stroke-width:1.89999998;stroke-miterlimit:4;stroke-opacity:1;stroke-dasharray:none" /><path
       d="m 44,46.823 v 6.998 c 0.693,-0.12 1.36,-0.246 2,-0.379 v -6.997 c -0.64,0.133 -1.307,0.259 -2,0.378"
       id="XMLID_113_"
       style="fill:none;stroke:#575757;stroke-width:1.89999998;stroke-miterlimit:4;stroke-opacity:1;stroke-dasharray:none" /><path
       d="m 17,47.27 v 6.998 c 0.652,0.084 1.317,0.162 2,0.232 V 47.502 C 18.317,47.431 17.652,47.353 17,47.27"
       id="XMLID_112_"
       style="fill:none;stroke:#575757;stroke-width:1.89999998;stroke-miterlimit:4;stroke-opacity:1;stroke-dasharray:none" /><path
       d="M 39,47.501 V 54.5 c 0.683,-0.071 1.348,-0.149 2,-0.232 V 47.27 c -0.652,0.084 -1.317,0.162 -2,0.231"
       id="XMLID_111_"
       style="fill:none;stroke:#575757;stroke-width:1.89999998;stroke-miterlimit:4;stroke-opacity:1;stroke-dasharray:none" /><path
       d="m 22,47.759 v 6.999 c 0.657,0.046 1.323,0.087 2,0.12 v -7 c -0.677,-0.033 -1.343,-0.073 -2,-0.119"
       id="XMLID_110_"
       style="fill:none;stroke:#575757;stroke-width:1.89999998;stroke-miterlimit:4;stroke-opacity:1;stroke-dasharray:none" /><path
       d="m 34,47.878 v 7 c 0.677,-0.033 1.343,-0.074 2,-0.12 v -6.999 c -0.657,0.046 -1.323,0.086 -2,0.119"
       id="XMLID_109_"
       style="fill:none;stroke:#575757;stroke-width:1.89999998;stroke-miterlimit:4;stroke-opacity:1;stroke-dasharray:none" /><path
       d="m 29,48 c -0.335,0 -0.668,-0.003 -1,-0.006 v 7 c 0.332,0.003 0.665,0.006 1,0.006 0.335,0 0.668,-0.003 1,-0.006 v -7 C 29.668,47.997 29.335,48 29,48"
       id="XMLID_108_"
       style="fill:none;stroke:#575757;stroke-width:1.89999998;stroke-miterlimit:4;stroke-opacity:1;stroke-dasharray:none" /><path
       d="M 51.212,39.372 C 48.372,41.87 38.163,44 26,44 16.49,44 8.177,42.697 3.644,40.935 3.227,41.313 3,41.713 3,42.13 3,45.168 14.641,48 29,48 c 14.36,0 26,-2.832 26,-5.87 0,-1.047 -1.385,-1.983 -3.788,-2.758"
       id="XMLID_107_"
       style="fill:none;stroke:#575757;stroke-width:1.89999998;stroke-miterlimit:4;stroke-opacity:1;stroke-dasharray:none" /><path
       d="M 32,33 C 18.787,33 7.884,30.485 6.226,27.717 2.347,28.596 0,29.767 0,31.13 0,34.167 11.641,37 26,37 40.359,37 52,34.167 52,31.13 52,30.996 51.97,30.865 51.925,30.735 47.156,32.077 40.002,33 32,33"
       id="XMLID_106_"
       style="fill:none;stroke:#575757;stroke-width:1.89999998;stroke-miterlimit:4;stroke-opacity:1;stroke-dasharray:none" /><path
       d="M 50.993,16.549 C 47.882,18.969 37.874,21 26,21 18.332,21 11.441,20.152 6.682,18.9 6.241,19.29 6,19.7 6,20.13 6,23.168 17.641,26 32,26 c 14.359,0 26,-2.832 26,-5.87 0,-1.452 -2.663,-2.687 -7.007,-3.581"
       id="XMLID_105_"
       style="fill:none;stroke:#575757;stroke-width:1.89999998;stroke-miterlimit:4;stroke-opacity:1;stroke-dasharray:none" /></g><g
     transform="translate(-0.28094785,-4.0730385)"
     id="g3162" /><g
     transform="translate(-0.28094785,-4.0730385)"
     id="g3164" /><g
     transform="translate(-0.28094785,-4.0730385)"
     id="g3166" /><g
     transform="translate(-0.28094785,-4.0730385)"
     id="g3168" /><g
     transform="translate(-0.28094785,-4.0730385)"
     id="g3170" /><g
     transform="translate(-0.28094785,-4.0730385)"
     id="g3172" /><g
     transform="translate(-0.28094785,-4.0730385)"
     id="g3174" /><g
     transform="translate(-0.28094785,-4.0730385)"
     id="g3176" /><g
     transform="translate(-0.28094785,-4.0730385)"
     id="g3178" /><g
     transform="translate(-0.28094785,-4.0730385)"
     id="g3180" /><g
     transform="translate(-0.28094785,-4.0730385)"
     id="g3182" /><g
     transform="translate(-0.28094785,-4.0730385)"
     id="g3184" /><g
     transform="translate(-0.28094785,-4.0730385)"
     id="g3186" /><g
     transform="translate(-0.28094785,-4.0730385)"
     id="g3188" /><g
     transform="translate(-0.28094785,-4.0730385)"
     id="g3190" /><path
     d="m 15.449764,18.137746 0,11.814152 -11.7999524,0 0,10.678176 11.7999524,0 0,11.814151 10.692375,0 0,-11.814151 11.799952,0 0,-10.678176 -11.799952,0 0,-11.814152 -10.692375,0 z"
     id="rect3198"
     style="color:#000000;fill:#000080;fill-opacity:1;fill-rule:nonzero;stroke:#ffffff;stroke-width:2;stroke-miterlimit:4;stroke-opacity:1;stroke-dasharray:none;marker:none;visibility:visible;display:inline;overflow:visible;enable-background:accumulate" /></svg>