<?xml version="1.0" encoding="UTF-8" standalone="no"?>
<!-- Created with Inkscape (http://www.inkscape.org/) -->

<svg
   xmlns:dc="http://purl.org/dc/elements/1.1/"
   xmlns:cc="http://creativecommons.org/ns#"
   xmlns:rdf="http://www.w3.org/1999/02/22-rdf-syntax-ns#"
   xmlns:svg="http://www.w3.org/2000/svg"
   xmlns="http://www.w3.org/2000/svg"
   version="1.1"
   width="51.552567"
   height="44.168541"
   id="svg3984">
  <defs
     id="defs3986" />
  <metadata
     id="metadata3989">
    <rdf:RDF>
      <cc:Work
         rdf:about="">
        <dc:format>image/svg+xml</dc:format>
        <dc:type
           rdf:resource="http://purl.org/dc/dcmitype/StillImage" />
        <dc:title></dc:title>
      </cc:Work>
    </rdf:RDF>
  </metadata>
  <g
     transform="translate(-371.25452,-454.25138)"
     id="layer1">
    <g
       transform="matrix(0.1585623,0,0,0.1585623,360.7434,441.64285)"
       id="g3955">
      <path
         d="m 74.290179,89.517857 0,34.281253 40.000001,0 0,-34.281253 -40.000001,0 z m 85.718751,0 0,34.281253 231.40625,0 0,-34.281253 -231.40625,0 z"
         id="rect2985"
         style="opacity:0.37423317;color:#000000;fill:#333333;fill-opacity:1;fill-rule:nonzero;stroke:none;stroke-width:3.9000001;marker:none;visibility:visible;display:inline;overflow:visible;enable-background:accumulate" />
      <path
         d="m 74.290179,167.60953 0,34.28125 40.000001,0 0,-34.28125 -40.000001,0 z m 85.718751,0 0,34.28125 231.40625,0 0,-34.28125 -231.40625,0 z"
         id="rect2985-5"
         style="opacity:0.37423317;color:#000000;fill:#333333;fill-opacity:1;fill-rule:nonzero;stroke:none;stroke-width:3.9000001;marker:none;visibility:visible;display:inline;overflow:visible;enable-background:accumulate" />
      <path
         d="m 74.290179,323.79299 0,34.28125 40.000001,0 0,-34.28125 -40.000001,0 z m 85.718751,0 0,34.28125 231.40625,0 0,-34.28125 -231.40625,0 z"
         id="rect2985-3"
         style="opacity:0.37423317;color:#000000;fill:#333333;fill-opacity:1;fill-rule:nonzero;stroke:none;stroke-width:3.9000001;marker:none;visibility:visible;display:inline;overflow:visible;enable-background:accumulate" />
      <path
         d="m 74.290179,245.70126 0,34.28125 40.000001,0 0,-34.28125 -40.000001,0 z m 85.718751,0 0,34.28125 231.40625,0 0,-34.28125 -231.40625,0 z"
         id="rect2985-56"
         style="opacity:0.37423317;color:#000000;fill:#333333;fill-opacity:1;fill-rule:nonzero;stroke:none;stroke-width:3.9000001;marker:none;visibility:visible;display:inline;overflow:visible;enable-background:accumulate" />
      <path
         d="m 66.290179,79.517857 0,34.281253 40.000001,0 0,-34.281253 -40.000001,0 z m 85.718751,0 0,34.281253 231.40625,0 0,-34.281253 -231.40625,0 z"
         id="path3943"
         style="color:#000000;fill:#000080;fill-opacity:1;fill-rule:nonzero;stroke:none;stroke-width:3.9000001;marker:none;visibility:visible;display:inline;overflow:visible;enable-background:accumulate" />
      <path
         d="m 66.290179,157.60953 0,34.28125 40.000001,0 0,-34.28125 -40.000001,0 z m 85.718751,0 0,34.28125 231.40625,0 0,-34.28125 -231.40625,0 z"
         id="path3945"
         style="color:#000000;fill:#000080;fill-opacity:1;fill-rule:nonzero;stroke:none;stroke-width:3.9000001;marker:none;visibility:visible;display:inline;overflow:visible;enable-background:accumulate" />
      <path
         d="m 66.290179,313.79299 0,34.28125 40.000001,0 0,-34.28125 -40.000001,0 z m 85.718751,0 0,34.28125 231.40625,0 0,-34.28125 -231.40625,0 z"
         id="path3947"
         style="color:#000000;fill:#000080;fill-opacity:1;fill-rule:nonzero;stroke:none;stroke-width:3.9000001;marker:none;visibility:visible;display:inline;overflow:visible;enable-background:accumulate" />
      <path
         d="m 66.290179,235.70126 0,34.28125 40.000001,0 0,-34.28125 -40.000001,0 z m 85.718751,0 0,34.28125 231.40625,0 0,-34.28125 -231.40625,0 z"
         id="path3949"
         style="color:#000000;fill:#000080;fill-opacity:1;fill-rule:nonzero;stroke:none;stroke-width:3.9000001;marker:none;visibility:visible;display:inline;overflow:visible;enable-background:accumulate" />
    </g>
  </g>
</svg>
